<?xml version="1.0" encoding="UTF-8"?>
<svg id="Layer_1" data-name="Layer 1" xmlns="http://www.w3.org/2000/svg" viewBox="0 0 479.95 268.09">
  <defs>
    <style>
      .cls-1, .cls-2 {
        stroke-width: 0px;
      }

      .cls-2 {
        fill: #bd81c2;
      }
    </style>
  </defs>
  <path class="cls-2" d="m13.65,77.91c3.22,0,3.22-5,0-5s-3.22,5,0,5h0Z"/>
  <g>
    <path class="cls-1" d="m393.49,266.22c-9.82-5.56-14.09-21.02-20.61-32.25-8.65-14.9-16.92-30.03-25.71-44.85-8.51-14.36-21.9-13.28-30.27,1.17-13.75,23.73-26.37,46.55-39.72,70.51-2.89,5.19-6.1,7.42-12.28,7.29-20.77-.42-41.55-.07-62.32-.19-15.8-.09-21.78-9.92-13.97-23.64,43.18-75.78,86.48-151.49,129.91-227.12,7.56-13.17,20.56-13.17,28.17.07,43.44,75.63,86.73,151.34,129.88,227.13,7.8,13.71,1.73,23.42-14.11,23.57-10.21.09-20.42.02-30.63.02"/>
    <path class="cls-1" d="m42.02.2c8.8-.39,28.8-.39,33.8,1.61,7.32,2.93,12.5,18.62,16.74,27.36,11.64,23.99,26.08,46.63,39.46,69.76,9.44,16.31,21.4,16.27,30.77-.04,17.35-30.19,34.79-60.32,51.73-90.73,3.4-6.11,7.19-8.31,14.08-8.1,16.18.51,32.39.08,48.58.19,16.6.12,22.06,9.55,13.71,24.21-30.11,52.86-60.39,105.63-90.6,158.43-12.75,22.28-25.43,44.6-38.27,66.83-8.77,15.19-20.61,15.21-29.39-.11C89.61,174.56,46.67,99.47,3.79,24.34-4.48,9.86,1.07.41,17.66.24c8.1-.08,24.34-.03,24.36-.04Z"/>
  </g>
</svg>